<svg width="325" height="115" viewBox="0 0 325 115" fill="none" xmlns="http://www.w3.org/2000/svg">
<path d="M97.56 92V48.992H84.984L82.68 42.272H97.56V35.36C97.56 22.208 102.264 19.616 123.576 20.576V27.68C108.408 27.104 105.048 28.544 105.048 35.744V42.272H122.616V48.992H105.048V92H97.56ZM132.083 92V85.184H149.363V28.928H133.043V22.112H156.851V85.184H172.883V92H132.083ZM212.301 79.04H219.981C217.869 90.464 214.413 92.96 200.973 92.96C182.925 92.96 178.989 88.256 178.989 67.04C178.989 45.92 182.733 41.312 199.629 41.312C217.389 41.312 221.229 46.592 220.941 70.784H186.285C186.669 83.072 189.261 85.76 200.685 85.76C208.365 85.76 210.477 84.512 212.301 79.04ZM186.381 63.872H213.549C213.165 51.296 210.669 48.512 200.013 48.512C189.165 48.512 186.669 51.296 186.381 63.872ZM260.263 79.04H267.944C265.831 90.464 262.375 92.96 248.935 92.96C230.887 92.96 226.951 88.256 226.951 67.04C226.951 45.92 230.695 41.312 247.591 41.312C265.351 41.312 269.192 46.592 268.903 70.784H234.247C234.631 83.072 237.223 85.76 248.647 85.76C256.327 85.76 258.439 84.512 260.263 79.04ZM234.343 63.872H261.512C261.127 51.296 258.632 48.512 247.975 48.512C237.127 48.512 234.631 51.296 234.343 63.872ZM274.338 48.896L276.258 42.272H287.586V31.04L294.978 27.872V42.272H312.738V48.896H294.882V76.544C294.882 84.128 296.61 85.76 304.578 85.76C306.882 85.76 308.802 85.568 314.85 84.896V91.904C308.514 92.768 306.402 92.96 302.946 92.96C290.178 92.96 287.394 90.08 287.394 76.928V48.896H274.338Z" fill="white"/>
<g style="mix-blend-mode:screen">
<path opacity="0.3" d="M1 20V70L44.3013 45L1 20Z" fill="#84CC16" stroke="#84CC16" stroke-width="2" stroke-linejoin="round"/>
<path opacity="0.3" d="M1 45V95L44.3013 70L1 45Z" fill="#10B981" stroke="#10B981" stroke-width="2" stroke-linejoin="round"/>
<path opacity="0.6" d="M22.6506 32.5V82.5L65.9519 57.5L22.6506 32.5Z" fill="#22C55E" stroke="#22C55E" stroke-width="2" stroke-linejoin="round"/>
</g>
</svg>
